<?xml version="1.0" encoding="UTF-8"?>
<svg width="1973.3" height="194.68" version="1.1" viewBox="0 0 1973.2976 194.67599" xml:space="preserve" xmlns="http://www.w3.org/2000/svg" xmlns:cc="http://creativecommons.org/ns#" xmlns:dc="http://purl.org/dc/elements/1.1/" xmlns:rdf="http://www.w3.org/1999/02/22-rdf-syntax-ns#"><metadata><rdf:RDF><cc:Work rdf:about=""><dc:format>image/svg+xml</dc:format><dc:type rdf:resource="http://purl.org/dc/dcmitype/StillImage"/><dc:title/></cc:Work></rdf:RDF></metadata><g transform="matrix(1.3333 0 0 -1.3333 0 194.68)"><g transform="scale(.1)" fill="#fff"><path d="m1186.7 568.61c-13.75-6.883-28.28-12.429-43.55-16.621-15.31-4.219-30.59-8.222-45.86-12.051-25.23-6.109-44.34-13.378-57.33-21.773-13-8.418-19.5-22.551-19.5-42.426 0-13.75 6.69-26.363 20.07-37.82 13.38-11.453 30.39-17.203 51.02-17.203 25.98 0 47.96 7.64 65.93 22.929 17.94 15.282 27.7 38.59 29.22 69.926zm217.83-134.14c0-22.16 1.33-45.098 4.03-68.778 2.66-23.703 10.48-45.109 23.5-64.203h-231.6c-3.06 8.403-5.35 17.782-6.88 28.094-1.54 10.316-1.91 19.668-1.13 28.078h-2.31c-24.46-27.5-53.3-46.25-86.56-56.172-33.24-9.918-68.21-14.906-104.9-14.906-29.058 0-56.172 3.449-81.402 10.34-25.223 6.859-47.395 17.75-66.488 32.66-19.106 14.887-34.219 33.617-45.278 56.168-11.089 22.539-16.629 49.48-16.629 80.836 0 31.316 5.54 57.488 16.629 78.523 11.059 21.004 25.961 38.582 44.707 52.743 18.715 14.121 39.922 25.015 63.622 32.664 23.687 7.636 47.957 13.769 72.808 18.343 24.829 4.594 49.299 8.219 73.379 10.895 24.07 2.68 45.66 5.914 64.77 9.754 15.28 3.039 29.4 7.828 42.42 14.324 12.99 6.492 19.48 19.301 19.48 38.406 0 19.867-7.84 33.992-23.5 42.418-15.67 8.41-32.67 12.617-51.01 12.617-17.59 0-31.72-1.921-42.42-5.734-10.71-3.828-19.3-8.793-25.79-14.902-6.5-6.133-10.9-12.805-13.19-20.067-2.3-7.265-3.44-13.957-3.44-20.062h-210.94c1.519 42.031 11.828 75.844 30.934 101.46 19.097 25.601 43.183 45.293 72.25 59.043 29.023 13.75 61.328 22.926 96.867 27.515 35.53 4.582 70.89 6.887 106.05 6.887 71.07 0 125.72-6.703 163.94-20.066 38.21-13.391 66.1-31.157 83.7-53.313 17.56-22.176 27.69-47.207 30.38-75.097 2.67-27.907 4-55.993 4-84.27v-244.2"/><path d="m1467.6 896.51h217.83v-95.164h2.29c18.34 35.91 40.51 63.234 66.49 81.965 25.98 18.718 59.63 28.101 100.89 28.101 21.39 0 43.58-3.066 66.5-9.172v-200.64c-11.46 3.82-23.49 7.261-36.12 10.324-12.6 3.043-30.38 4.582-53.31 4.582-45.1 0-79.29-13.957-102.6-41.852-23.31-27.906-34.97-73.945-34.97-138.15v-235.02h-227v595.02"/><path d="m2292.3 896.51h121.53v-139.88h-121.53v-207.51c0-27.523 4.4-47.59 13.19-60.187 8.78-12.606 27.69-18.926 56.75-18.926 16.82 0 34 1.152 51.59 3.449v-171.97c-22.92 0-46.81-1.156-71.66-3.437-24.83-2.289-49.48-3.442-73.92-3.442-24.48 0-48.74 1.532-72.82 4.59-24.07 3.039-45.67 10.692-64.77 22.922-19.11 12.231-34.79 30.188-46.99 53.891-12.24 23.679-18.35 55.777-18.35 96.304v284.32h-100.91v139.88h100.91v181.14h226.98v-181.14"/><path d="m2463.2 896.51h218.99v-75.672h2.28c21.4 29.805 47.59 52.344 78.54 67.633 30.94 15.281 69.35 22.941 115.22 22.941 26.72 0 52.34-4.219 76.83-12.617 24.44-8.422 46.23-20.84 65.32-37.258 19.09-16.441 34.22-37.269 45.3-62.484 11.06-25.223 16.62-55.032 16.62-89.43v-408.14h-226.99v311.84c0 16.801-0.78 32.481-2.31 47.012-1.55 14.5-4.99 26.933-10.31 37.254-5.36 10.312-12.8 18.344-22.35 24.074-9.57 5.734-22.75 8.59-39.58 8.59-9.93 0-20.25-1.539-30.93-4.578-10.72-3.067-20.46-8.797-29.23-17.192-8.8-8.422-16.07-20.062-21.79-34.965-5.74-14.902-8.59-34.218-8.59-57.91v-314.12h-227.02v595.02"/><path d="m3552.3 666.07c0 27.52-9.36 51.012-28.09 70.504-18.73 19.485-42.6 29.239-71.66 29.239-34.38 0-61.13-8.598-80.23-25.797-19.13-17.203-31.35-41.844-36.68-73.946zm-217.84-118.09c3.06-34.406 14.16-62.304 33.26-83.691 19.12-21.398 46.62-32.109 82.56-32.109 18.34 0 36.49 3.461 54.45 10.308 17.96 6.891 31.52 17.594 40.71 32.121h212.09c-11.47-32.121-27.51-60.019-48.15-83.699-20.65-23.691-44.55-43.18-71.66-58.469-27.14-15.293-56.57-26.75-88.29-34.39-31.71-7.641-64.38-11.469-98.01-11.469-47.41 0-91.53 6.887-132.41 20.648-40.91 13.758-76.24 33.809-106.07 60.18-29.8 26.371-53.12 58.852-69.9 97.453-16.85 38.575-25.24 82.719-25.24 132.41 0 43.567 7.44 84.266 22.35 122.11 14.9 37.828 36.13 71.066 63.63 99.742 27.51 28.648 60.56 51.184 99.16 67.629 38.6 16.43 81.59 24.66 128.99 24.66 58.83 0 109.65-8.039 152.47-24.078 42.8-16.051 77.96-39.563 105.49-70.52 27.5-30.945 47.76-68.972 60.75-114.06 12.99-45.113 19.52-96.707 19.52-154.78h-435.7"/><path d="m3813.7 896.51h217.83v-95.164h2.28c18.34 35.91 40.52 63.234 66.49 81.965 25.98 18.718 59.61 28.101 100.91 28.101 21.36 0 43.55-3.066 66.49-9.172v-200.64c-11.49 3.82-23.5 7.261-36.13 10.324-12.6 3.043-30.36 4.582-53.32 4.582-45.1 0-79.28-13.957-102.6-41.852-23.3-27.906-34.97-73.945-34.97-138.15v-235.02h-226.98v595.02"/><path d="m337.15 896.51h55.074v55.066h-55.074z"/><path d="m524.6 545.68c-2.692-17.578-7.848-33.25-15.481-46.992-7.652-13.77-17.777-25.051-30.383-33.821-12.617-8.793-29.234-13.203-49.867-13.203-20.641 0-37.269 4.41-49.871 13.203-12.613 8.77-22.75 20.051-30.387 33.821-7.652 13.742-12.8 29.414-15.476 46.992-2.688 17.586-4.012 35.144-4.012 52.75 0 17.562 1.324 35.14 4.012 52.738 2.676 17.566 7.824 33.426 15.476 47.566 7.637 14.145 17.774 25.602 30.387 34.403 12.602 8.785 29.23 13.183 49.871 13.183 20.633 0 37.25-4.398 49.867-13.183 12.606-8.801 22.731-20.258 30.383-34.403 7.633-14.14 12.789-30 15.481-47.566 2.66-17.598 4.011-35.176 4.011-52.738 0-17.606-1.351-35.164-4.011-52.75zm215.54 162.81c-7.715 27.973-18.317 53.938-31.801 77.871h-95.816v-55.074h-55.079v55.074h55.079v98.715c-30.633 17.481-66.219 26.34-106.84 26.34-27.516 0-50.84-2.5-69.938-7.453-19.109-4.981-35.16-11.293-48.148-18.926-13.004-7.644-23.895-16.254-32.668-25.801-8.797-9.558-16.633-18.91-23.508-28.082h-2.293v10.286h-55.07v55.074h-55.231v-108.68h-108.68v-404.84h53.808v-110.15h55.078v-163.96h55.024v63.097h63.093v194.85h2.301c17.567-25.231 40.492-44.91 68.781-59.051 28.274-14.117 59.622-21.207 94.012-21.207 49.672 0 90.949 9.559 123.82 28.656 32.847 19.114 58.851 43.571 77.961 73.371 19.093 29.813 32.484 63.051 40.128 99.75 7.622 36.684 11.465 72.618 11.465 107.77 0 37.437-5.164 74.894-15.476 112.36zm-72.543 133.12v-0.175h0.164c-0.055 0.054-0.113 0.121-0.164 0.175zm-557.45-623.83h53.808v55.071h-53.808v-55.071"/><path d="m337.15 0h55.074v55.07h-55.074z"/><path d="m0 383h55.074v55.082h-55.074z"/><path d="m55.074 327.92h55.07v55.078h-55.07z"/><path d="m110.14 108.89h55.074v55.078h-55.074z"/><path d="m0 951.57h55.074v55.078h-55.074z"/><path d="m0 786.36h55.074v55.078h-55.074z"/><path d="m55.074 896.51h55.07v55.059h-55.07z"/><path d="m110.14 841.44h55.074v55.074h-55.074z"/><path d="m1.2656 0h108.88v108.89h-108.88z"/><path d="m722.67 896.51h55.07v55.066h-55.07z"/><path d="m777.74 951.58h108.89v108.89h-108.89z"/><path d="m4873.7 896.5h55.062v55.074h-55.062z"/><path d="m4928.8 951.57h108.9v108.89h-108.9z"/><path d="m4877.6 560.01c-7.64 17.957-17.96 33.621-30.94 47.011-13.03 13.364-28.1 24.454-45.29 33.247-17.18 8.777-35.36 16.222-54.46 22.355-19.12 6.105-38.41 11.27-57.89 15.473-19.48 4.191-38.25 7.828-56.18 10.894-17.98 3.051-34.4 6.102-49.3 9.176-14.91 3.051-26.95 6.477-36.12 10.32-6.12 3.035-12.03 6.864-17.75 11.461-5.74 4.578-8.61 11.074-8.61 19.481 0 19.109 7.44 31.539 22.35 37.269 14.89 5.735 30.38 8.59 46.42 8.59 19.87 0 36.69-5.73 50.46-17.191 7.62-5.352 13.76-11.657 18.34-18.91 4.58-7.27 7.28-15.875 8.03-25.797h33.98v64.218h64.2v91.414c-25.01 11.352-52.28 19.606-82.12 24.352-33.66 5.348-66.5 8.039-98.61 8.039-29.8 0-61.16-2.879-94.01-8.605-32.86-5.731-63.25-15.676-91.14-29.805-27.9-14.156-50.84-33.441-68.77-57.906-17.98-24.465-26.95-55.422-26.95-92.86 0-51.215 18.89-91.539 56.75-120.94 37.82-29.449 99.91-51.434 186.3-65.922 25.98-4.602 47.18-8.812 63.6-12.617 16.44-3.832 29.26-8.02 38.42-12.621 9.18-4.571 15.29-9.93 18.35-16.043 3.05-6.125 4.6-13.379 4.6-21.778 0-8.418-2.7-15.675-8.05-21.785-5.36-6.133-11.84-10.89-19.48-14.34-7.67-3.429-15.88-5.91-24.65-7.441-8.79-1.539-17-2.281-24.64-2.281-27.53 0-47.79 5.711-60.78 17.179-17.6 15.282-26.76 32.86-27.5 52.739h-216.69c0.74-38.215 10.13-70.707 28.09-97.446 17.95-26.769 41.07-48.55 69.34-65.339 28.29-16.832 59.82-28.864 94.61-36.133 34.75-7.25 69.72-10.887 104.91-10.887 35.9 0 72.02 3.27 108.32 9.75 36.3 6.488 68.8 17.578 97.47 33.25 28.66 15.656 51.94 37.059 69.94 64.199 17.95 27.117 26.94 61.328 26.94 102.61 0 24.453-3.86 45.656-11.49 63.625"/><path d="m187.54 1443.7c33.574 20.22 74.73 12.27 111.91 13.73-2.531-11.56-5.418-23.1-7.945-34.66-14.082-0.36-33.938 2.88-41.5-13-6.875-18.05-9.391-37.19-14.445-55.23 25.629-0.36 51.254 0 76.882 0-2.871-10.83-3.242-22.75-10.105-31.77-18.766-0.73-37.906 1.09-56.297-2.18-13.734-2.51-23.484-15.14-26.004-28.14-10.832-45.49-22.379-90.99-33.215-136.48-29.242-0.71-58.851-0.35-88.445-0.35 12.641 51.62 27.426 102.54 37.914 154.51 2.512 18.05-22.398 11.2-33.23 13.01 2.91 10.11 5.421 20.57 7.957 31.04 12.636 0 24.902 0.36 37.539 0 9.734 30.68 9.39 69.68 38.988 89.52"/><path d="m307.04 1310.4c5.406 23.1 28.164 37.91 50.559 41.51 29.929 4.7 59.91 1.47 89.879 2.18-2.883-10.47-5.789-20.93-9.028-31.41-11.558-0.37-24.554 1.8-35.027-4.69-8.668-5.06-10.473-15.52-12.625-24.18-11.199-46.22-22.75-92.44-33.586-138.64h-88.434c13 51.63 25.258 103.62 38.262 155.23"/><path d="m1876.7 1303.2c14.81 16.63 34.66 33.96 58.49 31.42 13.39 0 24.91-10.82 25.63-23.83 2.9-25.99-17.68-49.1-40.79-57.03-19.49-6.49-40.78-5.43-61.01-2.17-0.36 18.41 4.33 37.9 17.68 51.61zm32.5-110.81c-20.6 1.44-44.05 11.55-48.75 33.93 39.36-5.05 79.8-3.96 118.79 3.61 25.29 5.78 51.62 15.88 67.5 37.55 11.56 22.38 8.31 53.79-12.64 69.68-23.83 18.76-55.24 23.46-84.83 25.62-46.19 2.53-95.66-3.61-135.34-28.87-24.95-15.53-42.66-41.52-48.05-70.4-3.97-19.87-2.88-42.98 10.82-59.21-9.73-7.94-25.61-14.08-36.79-5.76-9.77 10.46-6.54 26.32-4.36 38.96 18.43 74.03 34.66 148.39 52.73 222.39-28.53 0.36-56.7 0-85.2 0-16.26-64.98-32.15-130.32-49.12-195.31-5.41-23.11-11.54-48.72-2.17-72.19 9.03-25.29 36.47-40.82 62.81-40.44 29.98-1.79 59.58 9.39 84.14 26.36 19.48-11.56 40.79-20.22 63.53-23.49 64.24-9.73 131.77 3.63 187.38 37.57v32.12c-42.27-23.82-91.72-35.73-140.45-32.12"/><path d="m812.79 1298.5c15.527 19.13 38.27 38.27 65 33.58 13.707-1.82 22.383-15.88 21.66-29.24-0.723-24.92-21.305-45.5-44.402-52.35-19.121-5.07-39.703-5.77-58.492-0.37 1.445 17.34 4.343 35.38 16.234 48.38zm-284.47 6.5c16.621 18.42 42.977 35.73 68.231 24.2 18.054-11.2 15.168-38.28 3.972-53.46-20.214-29.58-61.371-33.92-93.5-25.62 0 20.24 6.493 40.44 21.297 54.88zm1039.3 51.26c-24.2-41.51-47.66-83.76-79.8-119.49-7.58-7.22-17.32-18.76-29.58-14.43-7.58 4.69-7.22 14.43-5.06 22.01 8.66 37.18 17.32 74.38 26.01 111.91-28.53 0-57.06 0-85.93-0.36-10.48-47.28-25.27-93.86-33.93-141.86-19.86-9.76-41.19-20.95-63.89-20.23-16.62 0.72-29.26 16.6-26.75 32.85 3.63 23.46 10.49 45.84 15.91 68.96 2.51 14.79 15.14 27.07 30.66 27.8 19.5 1.07 39.38 1.07 59.22 1.8 2.16 10.46 5.04 20.94 7.59 31.04-27.09 0.36-54.52 0-81.59 0.36 4.68 19.87 9.03 39.72 13.72 59.57-28.53 0.36-57.05 0-85.56 0.36-5.77-19.86-10.82-40.06-16.26-59.93-44.41-0.72-88.78 0-133.2-0.36-22.02 0-45.83-3.97-62.46-19.86-14.08-14.08-21.282-37.53-11.19-55.94 13.72-27.81 47.64-37.91 61.01-65.71 5.77-14.8-10.11-25.99-23.46-25.27-23.83-2.53-42.23 15.89-56.298 32.49-39.719-22.74-85.594-33.56-131.07-32.85-23.121 1.08-52.707 9.4-56.672 36.1 36.844-6.87 74.738-4.71 111.54 1.08 23.844 4.69 48.766 12.64 66.801 30.32 16.262 14.43 16.969 40.09 9.742 59.58-8.664 19.83-29.586 29.96-49.098 36.09-26.711 7.96-55.222 9.75-83.015 8.66-40.063-2.17-81.946-11.53-114.11-37.53-28.851-23.11-42.937-61.75-37.882-98.2-41.875-24.91-91.34-37.55-140.08-35.74-22.383 1.08-49.468 10.1-53.793 35.36 39.356-6.49 79.789-4.33 118.77 2.91 24.918 5.77 50.894 15.87 66.422 37.19 14.082 23.1 7.933 55.95-14.082 71.83-27.422 20.21-62.813 23.1-95.668 24.55-42.953 0.36-88.446-6.86-124.54-31.41-32.129-20.94-51.629-60.29-47.293-98.55 2.886-22.38 16.242-42.24 34.668-54.88 25.629-17.33 56.312-24.55 86.632-26.7 63.18-3.62 127.8 13.73 179.06 50.53 23.102-32.5 64.246-45.87 102.54-49.81 56.297-5.06 114.8 6.85 164.24 35.35 14.446-16.6 33.585-29.59 55.965-32.84 29.25-3.59 61.38-0.71 86.65 15.9 22.73 14.8 36.81 42.59 33.2 69.66-5.06 26.37-29.61 40.44-48.38 56.69-11.57 7.58-3.96 25.63 8.31 27.43 21.31 4.33 43.31 1.8 64.99 2.17 7.94 0 20.2-0.37 20.2-11.19-5.05-33.57-18.07-66.42-18.41-101.08 0.73-28.88 24.91-51.64 51.98-57.79 45.12-10.82 91.35 6.52 129.25 30.35 7.94-14.44 20.21-28.17 37.18-32.14 28.89-5.05 58.85 6.14 81.24 24.56 23.09 18.77 40.05 43.68 59.2 66.05-8.66-39.34-18.79-78.69-28.88-117.68-5.07-18.05-26.38-19.14-41.89-19.14-1.8-10.47-2.88-21.3-3.95-32.12 27.43 0.72 55.57-1.8 82.66 3.97 18.79 4.31 35.73 16.98 45.48 33.58 6.14 10.82 8.3 23.45 11.19 35.38 15.9 69.31 32.15 138.99 48.01 208.65h-86.27"/></g></g><g transform="matrix(2.6999 0 0 2.6999 -1230 -55.802)" fill="#fff" aria-label="Digital Asset Management"><path d="m747.08 62.89q0 7.1875-3.7695 10.879-3.7695 3.6719-11.074 3.6719h-6.8359v-28.555h7.7148q6.8359 0 10.391 3.5742 3.5742 3.5742 3.5742 10.43zm-2.168 0.07813q0-6.1328-3.125-9.2188-3.1055-3.1055-9.1406-3.1055h-5.2539v25.039h4.7266q12.793 0 12.793-12.715z" style="font-feature-settings:normal;font-variant-caps:normal;font-variant-ligatures:normal;font-variant-numeric:normal"/><path d="m755.13 77.44h-1.9336v-21.23h1.9336zm-2.207-27.129q0-1.875 1.2305-1.875 0.60547 0 0.9375 0.48828 0.35156 0.48828 0.35156 1.3867 0 0.87891-0.35156 1.3867-0.33203 0.50781-0.9375 0.50781-1.2305 0-1.2305-1.8945z" style="font-feature-settings:normal;font-variant-caps:normal;font-variant-ligatures:normal;font-variant-numeric:normal"/><path d="m778.82 56.21v1.3477l-4.3945 0.27344q1.7578 2.1875 1.7578 4.8047 0 3.0664-2.0508 4.9805-2.0312 1.8945-5.4688 1.8945-1.4453 0-2.0312-0.11719-1.1524 0.60547-1.7578 1.4258-0.60547 0.82031-0.60547 1.7383 0 1.0156 0.76172 1.4844 0.78125 0.46875 2.5977 0.46875h3.7109q3.457 0 5.293 1.4062 1.8359 1.3867 1.8359 4.1211 0 3.3594-2.7344 5.1758-2.7148 1.8359-7.7539 1.8359-4.0039 0-6.2109-1.543-2.1875-1.543-2.1875-4.2969 0-2.1875 1.3477-3.6328 1.3672-1.4453 3.6914-1.9727-0.95703-0.41016-1.543-1.1523-0.56641-0.76172-0.56641-1.7383 0-2.1289 2.7148-3.75-1.8555-0.76172-2.8906-2.3828-1.0352-1.6406-1.0352-3.75 0-3.1836 2.0117-5.0977 2.0312-1.9336 5.4688-1.9336 2.0898 0 3.2422 0.41016zm-17.188 24.824q0 4.375 6.5039 4.375 8.3594 0 8.3594-5.332 0-1.9141-1.3086-2.7734-1.3086-0.85938-4.2383-0.85938h-3.4766q-5.8398 0-5.8398 4.5898zm1.6211-18.203q0 2.4609 1.4844 3.8281 1.5039 1.3477 4.0039 1.3477 2.6562 0 4.0625-1.3477 1.4258-1.3477 1.4258-3.9062 0-2.7148-1.4648-4.0625-1.4453-1.3672-4.0625-1.3672-2.5391 0-4.0039 1.4648-1.4453 1.4453-1.4453 4.043z" style="font-feature-settings:normal;font-variant-caps:normal;font-variant-ligatures:normal;font-variant-numeric:normal"/><path d="m785.13 77.44h-1.9336v-21.23h1.9336zm-2.207-27.129q0-1.875 1.2305-1.875 0.60547 0 0.9375 0.48828 0.35156 0.48828 0.35156 1.3867 0 0.87891-0.35156 1.3867-0.33203 0.50781-0.9375 0.50781-1.2305 0-1.2305-1.8945z" style="font-feature-settings:normal;font-variant-caps:normal;font-variant-ligatures:normal;font-variant-numeric:normal"/><path d="m797.87 76.112q1.8359 0 3.2031-0.3125v1.5625q-1.4062 0.46875-3.2422 0.46875-2.8125 0-4.1602-1.5039-1.3281-1.5039-1.3281-4.7266v-13.711h-3.1445v-1.1328l3.1445-0.87891 0.97656-4.8047h0.9961v5.1367h6.2305v1.6797h-6.2305v13.438q0 2.4414 0.85937 3.6133 0.85938 1.1719 2.6953 1.1719z" style="font-feature-settings:normal;font-variant-caps:normal;font-variant-ligatures:normal;font-variant-numeric:normal"/><path d="m818.59 77.44-0.48828-3.3594h-0.15625q-1.6016 2.0508-3.3008 2.9102-1.6797 0.83984-3.9844 0.83984-3.125 0-4.8633-1.6016-1.7383-1.6016-1.7383-4.4336 0-3.1055 2.5781-4.8242 2.5976-1.7188 7.5-1.8164l4.043-0.11719v-1.4062q0-3.0273-1.2305-4.5703-1.2305-1.543-3.9648-1.543-2.9492 0-6.1133 1.6406l-0.72266-1.6797q3.4961-1.6406 6.9141-1.6406 3.4961 0 5.2148 1.8164 1.7383 1.8164 1.7383 5.6641v14.121zm-7.8125-1.3672q3.3984 0 5.3516-1.9336 1.9727-1.9531 1.9727-5.4102v-2.0898l-3.7109 0.15625q-4.4726 0.21484-6.3867 1.4062-1.8945 1.1719-1.8945 3.6719 0 1.9922 1.2109 3.1055 1.2305 1.0938 3.457 1.0938z" style="font-feature-settings:normal;font-variant-caps:normal;font-variant-ligatures:normal;font-variant-numeric:normal"/><path d="m828.8 77.44h-1.9336v-30.391h1.9336z" style="font-feature-settings:normal;font-variant-caps:normal;font-variant-ligatures:normal;font-variant-numeric:normal"/><path d="m860.56 67.362h-11.602l-3.9844 10.078h-2.207l11.484-28.672h1.2695l11.25 28.672h-2.2461zm-10.879-1.7969h10.215l-3.8867-10.293q-0.48829-1.2109-1.1719-3.3594-0.52734 1.875-1.1523 3.3984z" style="font-feature-settings:normal;font-variant-caps:normal;font-variant-ligatures:normal;font-variant-numeric:normal"/><path d="m883.47 71.913q0 2.8516-2.168 4.3945-2.168 1.5234-6.1523 1.5234-4.2578 0-6.7578-1.3086v-2.0898q3.2031 1.6016 6.7578 1.6016 3.1445 0 4.7656-1.0352 1.6406-1.0547 1.6406-2.793 0-1.6016-1.3086-2.6953-1.2891-1.0938-4.2578-2.1484-3.1836-1.1523-4.4726-1.9727-1.2891-0.83984-1.9531-1.875-0.64453-1.0547-0.64453-2.5586 0-2.3828 1.9922-3.7695 2.0117-1.3867 5.6055-1.3867 3.4375 0 6.5234 1.2891l-0.72266 1.7578q-3.125-1.2891-5.8008-1.2891-2.5977 0-4.1211 0.85938-1.5234 0.85938-1.5234 2.3828 0 1.6602 1.1719 2.6562 1.1914 0.99609 4.6289 2.2266 2.8711 1.0352 4.1797 1.875 1.3086 0.82031 1.9531 1.875 0.66406 1.0547 0.66406 2.4805z" style="font-feature-settings:normal;font-variant-caps:normal;font-variant-ligatures:normal;font-variant-numeric:normal"/><path d="m902.14 71.913q0 2.8516-2.168 4.3945-2.168 1.5234-6.1523 1.5234-4.2578 0-6.7578-1.3086v-2.0898q3.2031 1.6016 6.7578 1.6016 3.1445 0 4.7656-1.0352 1.6406-1.0547 1.6406-2.793 0-1.6016-1.3086-2.6953-1.2891-1.0938-4.2578-2.1484-3.1836-1.1523-4.4727-1.9727-1.2891-0.83984-1.9531-1.875-0.64453-1.0547-0.64453-2.5586 0-2.3828 1.9922-3.7695 2.0117-1.3867 5.6055-1.3867 3.4375 0 6.5234 1.2891l-0.72266 1.7578q-3.125-1.2891-5.8008-1.2891-2.5976 0-4.1211 0.85938t-1.5234 2.3828q0 1.6602 1.1719 2.6562 1.1914 0.99609 4.6289 2.2266 2.8711 1.0352 4.1797 1.875 1.3086 0.82031 1.9531 1.875 0.66406 1.0547 0.66406 2.4805z" style="font-feature-settings:normal;font-variant-caps:normal;font-variant-ligatures:normal;font-variant-numeric:normal"/><path d="m916.22 77.831q-4.6289 0-7.2266-2.8516-2.5781-2.8516-2.5781-7.9883 0-5.0781 2.5-8.125 2.5-3.0664 6.7383-3.0664 3.75 0 5.918 2.6172 2.168 2.6172 2.168 7.1094v1.5625h-15.293q0.0391 4.375 2.0312 6.6797 2.0117 2.3047 5.7422 2.3047 1.8164 0 3.1836-0.25391 1.3867-0.25391 3.4961-1.0938v1.7578q-1.7969 0.78125-3.3203 1.0547-1.5234 0.29297-3.3594 0.29297zm-0.56641-20.312q-3.0664 0-4.9219 2.0312-1.8555 2.0117-2.168 5.8203h13.125q0-3.6914-1.6016-5.7617-1.6016-2.0898-4.4336-2.0898z" style="font-feature-settings:normal;font-variant-caps:normal;font-variant-ligatures:normal;font-variant-numeric:normal"/><path d="m935.21 76.112q1.8359 0 3.2031-0.3125v1.5625q-1.4062 0.46875-3.2422 0.46875-2.8125 0-4.1602-1.5039-1.3281-1.5039-1.3281-4.7266v-13.711h-3.1445v-1.1328l3.1445-0.87891 0.97656-4.8047h0.9961v5.1367h6.2305v1.6797h-6.2305v13.438q0 2.4414 0.85937 3.6133 0.85938 1.1719 2.6953 1.1719z" style="font-feature-settings:normal;font-variant-caps:normal;font-variant-ligatures:normal;font-variant-numeric:normal"/><path d="m966.48 77.44-10.645-26.367h-0.15625q0.15625 2.4219 0.15625 4.9609v21.406h-1.9141v-28.555h3.0859l10.117 25.117h0.11718l10.117-25.117h3.0078v28.555h-2.0117v-21.641q0-2.2656 0.23437-4.6875h-0.15625l-10.684 26.328z" style="font-feature-settings:normal;font-variant-caps:normal;font-variant-ligatures:normal;font-variant-numeric:normal"/><path d="m1000.9 77.44-0.4883-3.3594h-0.1562q-1.6016 2.0508-3.3008 2.9102-1.6797 0.83984-3.9844 0.83984-3.125 0-4.8633-1.6016-1.7383-1.6016-1.7383-4.4336 0-3.1055 2.5781-4.8242 2.5977-1.7188 7.5-1.8164l4.043-0.11719v-1.4062q0-3.0273-1.2305-4.5703-1.2305-1.543-3.9648-1.543-2.9492 0-6.1133 1.6406l-0.72266-1.6797q3.4961-1.6406 6.9141-1.6406 3.4961 0 5.2148 1.8164 1.7383 1.8164 1.7383 5.6641v14.121zm-7.8125-1.3672q3.3984 0 5.3516-1.9336 1.9726-1.9531 1.9726-5.4102v-2.0898l-3.7109 0.15625q-4.4727 0.21484-6.3867 1.4062-1.8945 1.1719-1.8945 3.6719 0 1.9922 1.2109 3.1055 1.2305 1.0938 3.457 1.0938z" style="font-feature-settings:normal;font-variant-caps:normal;font-variant-ligatures:normal;font-variant-numeric:normal"/><path d="m1023.9 77.44v-13.77q0-3.2031-1.3477-4.6484-1.3477-1.4648-4.1797-1.4648-3.8086 0-5.5859 1.9336-1.7578 1.9141-1.7578 6.2305v11.719h-1.9336v-21.23h1.6406l0.3711 2.9102h0.1172q2.0703-3.3203 7.3633-3.3203 7.2265 0 7.2265 7.7539v13.887z" style="font-feature-settings:normal;font-variant-caps:normal;font-variant-ligatures:normal;font-variant-numeric:normal"/><path d="m1045.6 77.44-0.4882-3.3594h-0.1563q-1.6016 2.0508-3.3008 2.9102-1.6797 0.83984-3.9843 0.83984-3.125 0-4.8633-1.6016-1.7383-1.6016-1.7383-4.4336 0-3.1055 2.5781-4.8242 2.5977-1.7188 7.5-1.8164l4.043-0.11719v-1.4062q0-3.0273-1.2305-4.5703t-3.9648-1.543q-2.9492 0-6.1133 1.6406l-0.7227-1.6797q3.4961-1.6406 6.9141-1.6406 3.4961 0 5.2148 1.8164 1.7383 1.8164 1.7383 5.6641v14.121zm-7.8125-1.3672q3.3985 0 5.3516-1.9336 1.9727-1.9531 1.9727-5.4102v-2.0898l-3.711 0.15625q-4.4726 0.21484-6.3867 1.4062-1.8945 1.1719-1.8945 3.6719 0 1.9922 1.2109 3.1055 1.2305 1.0938 3.457 1.0938z" style="font-feature-settings:normal;font-variant-caps:normal;font-variant-ligatures:normal;font-variant-numeric:normal"/><path d="m1070.5 56.21v1.3477l-4.3945 0.27344q1.7578 2.1875 1.7578 4.8047 0 3.0664-2.0508 4.9805-2.0313 1.8945-5.4688 1.8945-1.4453 0-2.0312-0.11719-1.1524 0.60547-1.7578 1.4258-0.6055 0.82031-0.6055 1.7383 0 1.0156 0.7617 1.4844 0.7813 0.46875 2.5977 0.46875h3.7109q3.4571 0 5.293 1.4062 1.8359 1.3867 1.8359 4.1211 0 3.3594-2.7343 5.1758-2.7149 1.8359-7.754 1.8359-4.0039 0-6.2109-1.543-2.1875-1.543-2.1875-4.2969 0-2.1875 1.3477-3.6328 1.3672-1.4453 3.6914-1.9727-0.9571-0.41016-1.543-1.1523-0.5664-0.76172-0.5664-1.7383 0-2.1289 2.7148-3.75-1.8554-0.76172-2.8906-2.3828-1.0351-1.6406-1.0351-3.75 0-3.1836 2.0117-5.0977 2.0312-1.9336 5.4687-1.9336 2.0899 0 3.2422 0.41016zm-17.188 24.824q0 4.375 6.5039 4.375 8.3594 0 8.3594-5.332 0-1.9141-1.3086-2.7734t-4.2383-0.85938h-3.4766q-5.8398 0-5.8398 4.5898zm1.6211-18.203q0 2.4609 1.4844 3.8281 1.5039 1.3477 4.0039 1.3477 2.6562 0 4.0625-1.3477 1.4257-1.3477 1.4257-3.9062 0-2.7148-1.4648-4.0625-1.4453-1.3672-4.0625-1.3672-2.5391 0-4.0039 1.4648-1.4453 1.4453-1.4453 4.043z" style="font-feature-settings:normal;font-variant-caps:normal;font-variant-ligatures:normal;font-variant-numeric:normal"/><path d="m1083.4 77.831q-4.6289 0-7.2266-2.8516-2.5781-2.8516-2.5781-7.9883 0-5.0781 2.5-8.125 2.5-3.0664 6.7383-3.0664 3.75 0 5.918 2.6172 2.1679 2.6172 2.1679 7.1094v1.5625h-15.293q0.039 4.375 2.0312 6.6797 2.0117 2.3047 5.7422 2.3047 1.8164 0 3.1836-0.25391 1.3867-0.25391 3.4961-1.0938v1.7578q-1.7969 0.78125-3.3203 1.0547-1.5235 0.29297-3.3594 0.29297zm-0.5664-20.312q-3.0664 0-4.9219 2.0312-1.8554 2.0117-2.1679 5.8203h13.125q0-3.6914-1.6016-5.7617-1.6016-2.0898-4.4336-2.0898z" style="font-feature-settings:normal;font-variant-caps:normal;font-variant-ligatures:normal;font-variant-numeric:normal"/><path d="m1123.3 77.44v-13.926q0-3.1055-1.211-4.5312-1.2109-1.4258-3.7109-1.4258-3.2617 0-4.8242 1.7969t-1.5625 5.6445v12.441h-1.9727v-14.512q0-5.3711-4.9219-5.3711-3.3398 0-4.8633 1.9531-1.5234 1.9336-1.5234 6.2109v11.719h-1.9336v-21.23h1.6016l0.4101 2.9102h0.1172q0.8789-1.582 2.5-2.4414 1.6211-0.87891 3.5742-0.87891 5.0196 0 6.4454 3.7695h0.078q1.0351-1.8164 2.7734-2.793 1.7578-0.97656 3.9844-0.97656 3.4766 0 5.2148 1.8555 1.7383 1.8555 1.7383 5.8984v13.887z" style="font-feature-settings:normal;font-variant-caps:normal;font-variant-ligatures:normal;font-variant-numeric:normal"/><path d="m1140.7 77.831q-4.6289 0-7.2265-2.8516-2.5782-2.8516-2.5782-7.9883 0-5.0781 2.5-8.125 2.5-3.0664 6.7383-3.0664 3.75 0 5.918 2.6172 2.168 2.6172 2.168 7.1094v1.5625h-15.293q0.039 4.375 2.0312 6.6797 2.0118 2.3047 5.7422 2.3047 1.8164 0 3.1836-0.25391 1.3867-0.25391 3.4961-1.0938v1.7578q-1.7969 0.78125-3.3203 1.0547-1.5234 0.29297-3.3594 0.29297zm-0.5664-20.312q-3.0664 0-4.9218 2.0312-1.8555 2.0117-2.168 5.8203h13.125q0-3.6914-1.6016-5.7617-1.6015-2.0898-4.4336-2.0898z" style="font-feature-settings:normal;font-variant-caps:normal;font-variant-ligatures:normal;font-variant-numeric:normal"/><path d="m1168.9 77.44v-13.77q0-3.2031-1.3476-4.6484-1.3477-1.4648-4.1797-1.4648-3.8086 0-5.586 1.9336-1.7578 1.9141-1.7578 6.2305v11.719h-1.9336v-21.23h1.6407l0.3711 2.9102h0.1171q2.0704-3.3203 7.3633-3.3203 7.2266 0 7.2266 7.7539v13.887z" style="font-feature-settings:normal;font-variant-caps:normal;font-variant-ligatures:normal;font-variant-numeric:normal"/><path d="m1183.3 76.112q1.8359 0 3.2031-0.3125v1.5625q-1.4063 0.46875-3.2422 0.46875-2.8125 0-4.1602-1.5039-1.3281-1.5039-1.3281-4.7266v-13.711h-3.1445v-1.1328l3.1445-0.87891 0.9766-4.8047h0.9961v5.1367h6.2304v1.6797h-6.2304v13.438q0 2.4414 0.8593 3.6133 0.8594 1.1719 2.6954 1.1719z" style="font-feature-settings:normal;font-variant-caps:normal;font-variant-ligatures:normal;font-variant-numeric:normal"/></g></svg>
