<?xml version="1.0" encoding="UTF-8" standalone="no"?>
<svg
   xmlns:dc="http://purl.org/dc/elements/1.1/"
   xmlns:cc="http://creativecommons.org/ns#"
   xmlns:rdf="http://www.w3.org/1999/02/22-rdf-syntax-ns#"
   xmlns:svg="http://www.w3.org/2000/svg"
   xmlns="http://www.w3.org/2000/svg"
   viewBox="0 0 671.69336 194.67999"
   height="194.67999"
   width="671.69336"
   xml:space="preserve"
   id="svg2"
   version="1.1"><metadata
     id="metadata8"><rdf:RDF><cc:Work
         rdf:about=""><dc:format>image/svg+xml</dc:format><dc:type
           rdf:resource="http://purl.org/dc/dcmitype/StillImage" /></cc:Work></rdf:RDF></metadata><defs
     id="defs6" /><g
     transform="matrix(1.3333333,0,0,-1.3333333,0,194.68)"
     id="g10"><g
       transform="scale(0.1)"
       id="g12"><path
         id="path14"
         style="fill:#4885cb;fill-opacity:1;fill-rule:nonzero;stroke:none"
         d="m 1186.67,568.613 c -13.75,-6.883 -28.28,-12.429 -43.55,-16.621 -15.31,-4.219 -30.59,-8.222 -45.86,-12.051 -25.23,-6.109 -44.34,-13.378 -57.33,-21.773 -13,-8.418 -19.5,-22.551 -19.5,-42.426 0,-13.75 6.69,-26.363 20.07,-37.82 13.38,-11.453 30.39,-17.203 51.02,-17.203 25.98,0 47.96,7.64 65.93,22.929 17.94,15.282 27.7,38.59 29.22,69.926 z M 1404.5,434.469 c 0,-22.16 1.33,-45.098 4.03,-68.778 2.66,-23.703 10.48,-45.109 23.5,-64.203 h -231.6 c -3.06,8.403 -5.35,17.782 -6.88,28.094 -1.54,10.316 -1.91,19.668 -1.13,28.078 h -2.31 c -24.46,-27.5 -53.3,-46.25 -86.56,-56.172 -33.24,-9.918 -68.21,-14.906 -104.898,-14.906 -29.058,0 -56.172,3.449 -81.402,10.34 -25.223,6.859 -47.395,17.75 -66.488,32.66 -19.106,14.887 -34.219,33.617 -45.278,56.168 -11.089,22.539 -16.629,49.48 -16.629,80.836 0,31.316 5.54,57.488 16.629,78.523 11.059,21.004 25.961,38.582 44.707,52.743 18.715,14.121 39.922,25.015 63.622,32.664 23.687,7.636 47.957,13.769 72.808,18.343 24.829,4.594 49.299,8.219 73.379,10.895 24.07,2.68 45.66,5.914 64.77,9.754 15.28,3.039 29.4,7.828 42.42,14.324 12.99,6.492 19.48,19.301 19.48,38.406 0,19.867 -7.84,33.992 -23.5,42.418 -15.67,8.41 -32.67,12.617 -51.01,12.617 -17.59,0 -31.72,-1.921 -42.42,-5.734 -10.71,-3.828 -19.3,-8.793 -25.79,-14.902 -6.5,-6.133 -10.9,-12.805 -13.19,-20.067 -2.3,-7.265 -3.44,-13.957 -3.44,-20.062 H 816.379 c 1.519,42.031 11.828,75.844 30.934,101.461 19.097,25.601 43.183,45.293 72.25,59.043 29.023,13.75 61.328,22.926 96.867,27.515 35.53,4.582 70.89,6.887 106.05,6.887 71.07,0 125.72,-6.703 163.94,-20.066 38.21,-13.391 66.1,-31.157 83.7,-53.313 17.56,-22.176 27.69,-47.207 30.38,-75.097 2.67,-27.907 4,-55.993 4,-84.27 V 434.469" /><path
         id="path16"
         style="fill:#4885cb;fill-opacity:1;fill-rule:nonzero;stroke:none"
         d="m 1467.57,896.512 h 217.83 v -95.164 h 2.29 c 18.34,35.91 40.51,63.234 66.49,81.965 25.98,18.718 59.63,28.101 100.89,28.101 21.39,0 43.58,-3.066 66.5,-9.172 v -200.64 c -11.46,3.82 -23.49,7.261 -36.12,10.324 -12.6,3.043 -30.38,4.582 -53.31,4.582 -45.1,0 -79.29,-13.957 -102.6,-41.852 -23.31,-27.906 -34.97,-73.945 -34.97,-138.148 v -235.02 h -227 v 595.024" /><path
         id="path18"
         style="fill:#4885cb;fill-opacity:1;fill-rule:nonzero;stroke:none"
         d="m 2292.32,896.512 h 121.53 V 756.637 H 2292.32 V 549.125 c 0,-27.523 4.4,-47.59 13.19,-60.187 8.78,-12.606 27.69,-18.926 56.75,-18.926 16.82,0 34,1.152 51.59,3.449 V 301.488 c -22.92,0 -46.81,-1.156 -71.66,-3.437 -24.83,-2.289 -49.48,-3.442 -73.92,-3.442 -24.48,0 -48.74,1.532 -72.82,4.59 -24.07,3.039 -45.67,10.692 -64.77,22.922 -19.11,12.231 -34.79,30.188 -46.99,53.891 -12.24,23.679 -18.35,55.777 -18.35,96.304 v 284.321 h -100.91 v 139.875 h 100.91 v 181.138 h 226.98 V 896.512" /><path
         id="path20"
         style="fill:#4885cb;fill-opacity:1;fill-rule:nonzero;stroke:none"
         d="m 2463.15,896.512 h 218.99 V 820.84 h 2.28 c 21.4,29.805 47.59,52.344 78.54,67.633 30.94,15.281 69.35,22.941 115.22,22.941 26.72,0 52.34,-4.219 76.83,-12.617 24.44,-8.422 46.23,-20.84 65.32,-37.258 19.09,-16.441 34.22,-37.269 45.3,-62.484 11.06,-25.223 16.62,-55.032 16.62,-89.43 V 301.488 h -226.99 v 311.84 c 0,16.801 -0.78,32.481 -2.31,47.012 -1.55,14.5 -4.99,26.933 -10.31,37.254 -5.36,10.312 -12.8,18.344 -22.35,24.074 -9.57,5.734 -22.75,8.59 -39.58,8.59 -9.93,0 -20.25,-1.539 -30.93,-4.578 -10.72,-3.067 -20.46,-8.797 -29.23,-17.192 -8.8,-8.422 -16.07,-20.062 -21.79,-34.965 -5.74,-14.902 -8.59,-34.218 -8.59,-57.91 V 301.488 h -227.02 v 595.024" /><path
         id="path22"
         style="fill:#4885cb;fill-opacity:1;fill-rule:nonzero;stroke:none"
         d="m 3552.29,666.066 c 0,27.52 -9.36,51.012 -28.09,70.504 -18.73,19.485 -42.6,29.239 -71.66,29.239 -34.38,0 -61.13,-8.598 -80.23,-25.797 -19.13,-17.203 -31.35,-41.844 -36.68,-73.946 z M 3334.45,547.98 c 3.06,-34.406 14.16,-62.304 33.26,-83.691 19.12,-21.398 46.62,-32.109 82.56,-32.109 18.34,0 36.49,3.461 54.45,10.308 17.96,6.891 31.52,17.594 40.71,32.121 h 212.09 c -11.47,-32.121 -27.51,-60.019 -48.15,-83.699 -20.65,-23.691 -44.55,-43.18 -71.66,-58.469 -27.14,-15.293 -56.57,-26.75 -88.29,-34.39 -31.71,-7.641 -64.38,-11.469 -98.01,-11.469 -47.41,0 -91.53,6.887 -132.41,20.648 -40.91,13.758 -76.24,33.809 -106.07,60.18 -29.8,26.371 -53.12,58.852 -69.9,97.453 -16.85,38.575 -25.24,82.719 -25.24,132.41 0,43.567 7.44,84.266 22.35,122.11 14.9,37.828 36.13,71.066 63.63,99.742 27.51,28.648 60.56,51.184 99.16,67.629 38.6,16.43 81.59,24.66 128.99,24.66 58.83,0 109.65,-8.039 152.47,-24.078 42.8,-16.051 77.96,-39.563 105.49,-70.52 27.5,-30.945 47.76,-68.972 60.75,-114.058 12.99,-45.113 19.52,-96.707 19.52,-154.778 h -435.7" /><path
         id="path24"
         style="fill:#4885cb;fill-opacity:1;fill-rule:nonzero;stroke:none"
         d="m 3813.71,896.512 h 217.83 v -95.164 h 2.28 c 18.34,35.91 40.52,63.234 66.49,81.965 25.98,18.718 59.61,28.101 100.91,28.101 21.36,0 43.55,-3.066 66.49,-9.172 v -200.64 c -11.49,3.82 -23.5,7.261 -36.13,10.324 -12.6,3.043 -30.36,4.582 -53.32,4.582 -45.1,0 -79.28,-13.957 -102.6,-41.852 -23.3,-27.906 -34.97,-73.945 -34.97,-138.148 v -235.02 h -226.98 v 595.024" /><path
         id="path26"
         style="fill:#4885cb;fill-opacity:1;fill-rule:nonzero;stroke:none"
         d="m 337.148,896.512 h 55.0742 v 55.0664 H 337.148 Z" /><path
         id="path28"
         style="fill:#4885cb;fill-opacity:1;fill-rule:nonzero;stroke:none"
         d="m 524.602,545.676 c -2.692,-17.578 -7.848,-33.25 -15.481,-46.992 -7.652,-13.77 -17.777,-25.051 -30.383,-33.821 -12.617,-8.793 -29.234,-13.203 -49.867,-13.203 -20.641,0 -37.269,4.41 -49.871,13.203 -12.613,8.77 -22.75,20.051 -30.387,33.821 -7.652,13.742 -12.8,29.414 -15.476,46.992 -2.688,17.586 -4.012,35.144 -4.012,52.75 0,17.562 1.324,35.14 4.012,52.738 2.676,17.566 7.824,33.426 15.476,47.566 7.637,14.145 17.774,25.602 30.387,34.403 12.602,8.785 29.23,13.183 49.871,13.183 20.633,0 37.25,-4.398 49.867,-13.183 12.606,-8.801 22.731,-20.258 30.383,-34.403 7.633,-14.14 12.789,-30 15.481,-47.566 2.66,-17.598 4.011,-35.176 4.011,-52.738 0,-17.606 -1.351,-35.164 -4.011,-52.75 z m 215.535,162.812 c -7.715,27.973 -18.317,53.938 -31.801,77.871 H 612.52 v -55.074 h -55.079 v 55.074 h 55.079 v 98.715 c -30.633,17.481 -66.219,26.34 -106.84,26.34 -27.516,0 -50.84,-2.5 -69.938,-7.453 -19.109,-4.981 -35.16,-11.293 -48.148,-18.926 -13.004,-7.644 -23.895,-16.254 -32.668,-25.801 -8.797,-9.558 -16.633,-18.91 -23.508,-28.082 h -2.293 v 10.286 h -55.07 v 55.074 H 218.824 V 787.836 H 110.145 V 383 h 53.808 V 272.852 h 55.078 V 108.891 h 55.024 v 63.097 h 63.093 V 366.84 h 2.301 c 17.567,-25.231 40.492,-44.91 68.781,-59.051 28.274,-14.117 59.622,-21.207 94.012,-21.207 49.672,0 90.949,9.559 123.817,28.656 32.847,19.114 58.851,43.571 77.961,73.371 19.093,29.813 32.484,63.051 40.128,99.75 7.622,36.684 11.465,72.618 11.465,107.77 0,37.437 -5.164,74.894 -15.476,112.359 z m -72.543,133.125 v -0.175 h 0.164 c -0.055,0.054 -0.113,0.121 -0.164,0.175 z M 110.145,217.781 h 53.808 v 55.071 h -53.808 v -55.071" /><path
         id="path30"
         style="fill:#4885cb;fill-opacity:1;fill-rule:nonzero;stroke:none"
         d="m 337.148,0 h 55.0742 V 55.0703 H 337.148 Z" /><path
         id="path32"
         style="fill:#4885cb;fill-opacity:1;fill-rule:nonzero;stroke:none"
         d="m 0,383 h 55.0742 v 55.082 H 0 Z" /><path
         id="path34"
         style="fill:#4885cb;fill-opacity:1;fill-rule:nonzero;stroke:none"
         d="m 55.0742,327.922 h 55.0703 v 55.0781 H 55.0742 Z" /><path
         id="path36"
         style="fill:#4885cb;fill-opacity:1;fill-rule:nonzero;stroke:none"
         d="m 110.145,108.891 h 55.0742 v 55.0781 H 110.145 Z" /><path
         id="path38"
         style="fill:#4885cb;fill-opacity:1;fill-rule:nonzero;stroke:none"
         d="m 0,951.57 h 55.0742 v 55.0781 H 0 Z" /><path
         id="path40"
         style="fill:#4885cb;fill-opacity:1;fill-rule:nonzero;stroke:none"
         d="m 0,786.359 h 55.0742 v 55.0781 H 0 Z" /><path
         id="path42"
         style="fill:#4885cb;fill-opacity:1;fill-rule:nonzero;stroke:none"
         d="m 55.0742,896.512 h 55.0703 v 55.0586 H 55.0742 Z" /><path
         id="path44"
         style="fill:#4885cb;fill-opacity:1;fill-rule:nonzero;stroke:none"
         d="m 110.145,841.438 h 55.0742 v 55.0742 H 110.145 Z" /><path
         id="path46"
         style="fill:#4885cb;fill-opacity:1;fill-rule:nonzero;stroke:none"
         d="m 1.26563,0 h 108.879 V 108.891 H 1.26563 Z" /><path
         id="path48"
         style="fill:#4885cb;fill-opacity:1;fill-rule:nonzero;stroke:none"
         d="m 722.672,896.512 h 55.0703 v 55.0664 H 722.672 Z" /><path
         id="path50"
         style="fill:#4885cb;fill-opacity:1;fill-rule:nonzero;stroke:none"
         d="m 777.742,951.578 h 108.891 v 108.891 H 777.742 Z" /><path
         id="path52"
         style="fill:#4885cb;fill-opacity:1;fill-rule:nonzero;stroke:none"
         d="m 4873.74,896.496 h 55.0625 v 55.0742 H 4873.74 Z" /><path
         id="path54"
         style="fill:#4885cb;fill-opacity:1;fill-rule:nonzero;stroke:none"
         d="m 4928.8,951.57 h 108.898 v 108.887 H 4928.8 Z" /><path
         id="path56"
         style="fill:#4885cb;fill-opacity:1;fill-rule:nonzero;stroke:none"
         d="m 4877.6,560.012 c -7.64,17.957 -17.96,33.621 -30.94,47.011 -13.03,13.364 -28.1,24.454 -45.29,33.247 -17.18,8.777 -35.36,16.222 -54.46,22.355 -19.12,6.105 -38.41,11.27 -57.89,15.473 -19.48,4.191 -38.25,7.828 -56.18,10.894 -17.98,3.051 -34.4,6.102 -49.3,9.176 -14.91,3.051 -26.95,6.477 -36.12,10.32 -6.12,3.035 -12.03,6.864 -17.75,11.461 -5.74,4.578 -8.61,11.074 -8.61,19.481 0,19.109 7.44,31.539 22.35,37.269 14.89,5.735 30.38,8.59 46.42,8.59 19.87,0 36.69,-5.73 50.46,-17.191 7.62,-5.352 13.76,-11.657 18.34,-18.91 4.58,-7.27 7.28,-15.875 8.03,-25.797 h 33.98 v 64.218 h 64.2 v 91.414 c -25.01,11.352 -52.28,19.606 -82.12,24.352 -33.66,5.348 -66.5,8.039 -98.61,8.039 -29.8,0 -61.16,-2.879 -94.01,-8.605 -32.86,-5.731 -63.25,-15.676 -91.14,-29.805 -27.9,-14.156 -50.84,-33.441 -68.77,-57.906 -17.98,-24.465 -26.95,-55.422 -26.95,-92.86 0,-51.215 18.89,-91.539 56.75,-120.941 37.82,-29.449 99.91,-51.434 186.3,-65.922 25.98,-4.602 47.18,-8.812 63.6,-12.617 16.44,-3.832 29.26,-8.02 38.42,-12.621 9.18,-4.571 15.29,-9.93 18.35,-16.043 3.05,-6.125 4.6,-13.379 4.6,-21.778 0,-8.418 -2.7,-15.675 -8.05,-21.785 -5.36,-6.133 -11.84,-10.89 -19.48,-14.34 -7.67,-3.429 -15.88,-5.91 -24.65,-7.441 -8.79,-1.539 -17,-2.281 -24.64,-2.281 -27.53,0 -47.79,5.711 -60.78,17.179 -17.6,15.282 -26.76,32.86 -27.5,52.739 h -216.69 c 0.74,-38.215 10.13,-70.707 28.09,-97.446 17.95,-26.769 41.07,-48.55 69.34,-65.339 28.29,-16.832 59.82,-28.864 94.61,-36.133 34.75,-7.25 69.72,-10.887 104.91,-10.887 35.9,0 72.02,3.27 108.32,9.75 36.3,6.488 68.8,17.578 97.47,33.25 28.66,15.656 51.94,37.059 69.94,64.199 17.95,27.117 26.94,61.328 26.94,102.606 0,24.453 -3.86,45.656 -11.49,63.625" /><path
         id="path58"
         style="fill:#5c514e;fill-opacity:1;fill-rule:nonzero;stroke:none"
         d="m 187.543,1443.66 c 33.574,20.22 74.73,12.27 111.906,13.73 -2.531,-11.56 -5.418,-23.1 -7.945,-34.66 -14.082,-0.36 -33.938,2.88 -41.5,-13 -6.875,-18.05 -9.391,-37.19 -14.445,-55.23 25.629,-0.36 51.254,0 76.882,0 -2.871,-10.83 -3.242,-22.75 -10.105,-31.77 -18.766,-0.73 -37.906,1.09 -56.297,-2.18 -13.734,-2.51 -23.484,-15.14 -26.004,-28.14 -10.832,-45.49 -22.379,-90.99 -33.215,-136.48 -29.242,-0.71 -58.851,-0.35 -88.445,-0.35 12.641,51.62 27.426,102.54 37.914,154.51 2.512,18.05 -22.398,11.2 -33.23,13.01 2.91,10.11 5.421,20.57 7.957,31.04 12.636,0 24.902,0.36 37.539,0 9.734,30.68 9.39,69.68 38.988,89.52 v 0" /><path
         id="path60"
         style="fill:#5c514e;fill-opacity:1;fill-rule:nonzero;stroke:none"
         d="m 307.035,1310.45 c 5.406,23.1 28.164,37.91 50.559,41.51 29.929,4.7 59.91,1.47 89.879,2.18 -2.883,-10.47 -5.789,-20.93 -9.028,-31.41 -11.558,-0.37 -24.554,1.8 -35.027,-4.69 -8.668,-5.06 -10.473,-15.52 -12.625,-24.18 -11.199,-46.22 -22.75,-92.44 -33.586,-138.64 -29.59,0 -59.187,0 -88.434,0 13,51.63 25.258,103.62 38.262,155.23 v 0" /><path
         id="path62"
         style="fill:#5c514e;fill-opacity:1;fill-rule:nonzero;stroke:none"
         d="m 1876.68,1303.22 c 14.81,16.63 34.66,33.96 58.49,31.42 13.39,0 24.91,-10.82 25.63,-23.83 2.9,-25.99 -17.68,-49.1 -40.79,-57.03 -19.49,-6.49 -40.78,-5.43 -61.01,-2.17 -0.36,18.41 4.33,37.9 17.68,51.61 z m 32.5,-110.81 c -20.6,1.44 -44.05,11.55 -48.75,33.93 39.36,-5.05 79.8,-3.96 118.79,3.61 25.29,5.78 51.62,15.88 67.5,37.55 11.56,22.38 8.31,53.79 -12.64,69.68 -23.83,18.76 -55.24,23.46 -84.83,25.62 -46.19,2.53 -95.66,-3.61 -135.34,-28.87 -24.95,-15.53 -42.66,-41.52 -48.05,-70.4 -3.97,-19.87 -2.88,-42.98 10.82,-59.21 -9.73,-7.94 -25.61,-14.08 -36.79,-5.76 -9.77,10.46 -6.54,26.32 -4.36,38.96 18.43,74.03 34.66,148.39 52.73,222.39 -28.53,0.36 -56.7,0 -85.2,0 -16.26,-64.98 -32.15,-130.32 -49.12,-195.31 -5.41,-23.11 -11.54,-48.72 -2.17,-72.19 9.03,-25.29 36.47,-40.82 62.81,-40.44 29.98,-1.79 59.58,9.39 84.14,26.36 19.48,-11.56 40.79,-20.22 63.53,-23.49 64.24,-9.73 131.77,3.63 187.38,37.57 0,10.83 0,21.3 0,32.12 -42.27,-23.82 -91.72,-35.73 -140.45,-32.12" /><path
         id="path64"
         style="fill:#5c514e;fill-opacity:1;fill-rule:nonzero;stroke:none"
         d="m 812.793,1298.54 c 15.527,19.13 38.27,38.27 65,33.58 13.707,-1.82 22.383,-15.88 21.66,-29.24 -0.723,-24.92 -21.305,-45.5 -44.402,-52.35 -19.121,-5.07 -39.703,-5.77 -58.492,-0.37 1.445,17.34 4.343,35.38 16.234,48.38 z m -284.469,6.5 c 16.621,18.42 42.977,35.73 68.231,24.2 18.054,-11.2 15.168,-38.28 3.972,-53.46 -20.214,-29.58 -61.371,-33.92 -93.5,-25.62 0,20.24 6.493,40.44 21.297,54.88 z m 1039.346,51.26 c -24.2,-41.51 -47.66,-83.76 -79.8,-119.49 -7.58,-7.22 -17.32,-18.76 -29.58,-14.43 -7.58,4.69 -7.22,14.43 -5.06,22.01 8.66,37.18 17.32,74.38 26.01,111.91 -28.53,0 -57.06,0 -85.93,-0.36 -10.48,-47.28 -25.27,-93.86 -33.93,-141.86 -19.86,-9.76 -41.19,-20.95 -63.89,-20.23 -16.62,0.72 -29.26,16.6 -26.75,32.85 3.63,23.46 10.49,45.84 15.91,68.96 2.51,14.79 15.14,27.07 30.66,27.8 19.5,1.07 39.38,1.07 59.22,1.8 2.16,10.46 5.04,20.94 7.59,31.04 -27.09,0.36 -54.52,0 -81.59,0.36 4.68,19.87 9.03,39.72 13.72,59.57 -28.53,0.36 -57.05,0 -85.56,0.36 -5.77,-19.86 -10.82,-40.06 -16.26,-59.93 -44.41,-0.72 -88.78,0 -133.2,-0.36 -22.02,0 -45.83,-3.97 -62.46,-19.86 -14.08,-14.08 -21.282,-37.53 -11.19,-55.94 13.72,-27.81 47.64,-37.91 61.01,-65.71 5.77,-14.8 -10.11,-25.99 -23.46,-25.27 -23.83,-2.53 -42.23,15.89 -56.298,32.49 -39.719,-22.74 -85.594,-33.56 -131.074,-32.85 -23.121,1.08 -52.707,9.4 -56.672,36.1 36.844,-6.87 74.738,-4.71 111.535,1.08 23.844,4.69 48.766,12.64 66.801,30.32 16.262,14.43 16.969,40.09 9.742,59.58 -8.664,19.83 -29.586,29.96 -49.098,36.09 -26.711,7.96 -55.222,9.75 -83.015,8.66 -40.063,-2.17 -81.946,-11.53 -114.106,-37.53 -28.851,-23.11 -42.937,-61.75 -37.882,-98.2 -41.875,-24.91 -91.34,-37.55 -140.075,-35.74 -22.383,1.08 -49.468,10.1 -53.793,35.36 39.356,-6.49 79.789,-4.33 118.774,2.91 24.918,5.77 50.894,15.87 66.422,37.19 14.082,23.1 7.933,55.95 -14.082,71.83 -27.422,20.21 -62.813,23.1 -95.668,24.55 -42.953,0.36 -88.446,-6.86 -124.543,-31.41 -32.129,-20.94 -51.629,-60.29 -47.293,-98.55 2.886,-22.38 16.242,-42.24 34.668,-54.88 25.629,-17.33 56.312,-24.55 86.632,-26.7 63.18,-3.62 127.805,13.73 179.059,50.53 23.102,-32.5 64.246,-45.87 102.543,-49.81 56.297,-5.06 114.801,6.85 164.238,35.35 14.446,-16.6 33.585,-29.59 55.965,-32.84 29.25,-3.59 61.38,-0.71 86.65,15.9 22.73,14.8 36.81,42.59 33.2,69.66 -5.06,26.37 -29.61,40.44 -48.38,56.69 -11.57,7.58 -3.96,25.63 8.31,27.43 21.31,4.33 43.31,1.8 64.99,2.17 7.94,0 20.2,-0.37 20.2,-11.19 -5.05,-33.57 -18.07,-66.42 -18.41,-101.08 0.73,-28.88 24.91,-51.64 51.98,-57.79 45.12,-10.82 91.35,6.52 129.25,30.35 7.94,-14.44 20.21,-28.17 37.18,-32.14 28.89,-5.05 58.85,6.14 81.24,24.56 23.09,18.77 40.05,43.68 59.2,66.05 -8.66,-39.34 -18.79,-78.69 -28.88,-117.68 -5.07,-18.05 -26.38,-19.14 -41.89,-19.14 -1.8,-10.47 -2.88,-21.3 -3.95,-32.12 27.43,0.72 55.57,-1.8 82.66,3.97 18.79,4.31 35.73,16.98 45.48,33.58 6.14,10.82 8.3,23.45 11.19,35.38 15.9,69.31 32.15,138.99 48.01,208.65 -28.51,0 -57.39,0 -86.27,0" /></g></g></svg>