<?xml version="1.0" encoding="UTF-8" standalone="no"?>
<svg
   xmlns:dc="http://purl.org/dc/elements/1.1/"
   xmlns:cc="http://creativecommons.org/ns#"
   xmlns:rdf="http://www.w3.org/1999/02/22-rdf-syntax-ns#"
   xmlns:svg="http://www.w3.org/2000/svg"
   xmlns="http://www.w3.org/2000/svg"
   xmlns:sodipodi="http://sodipodi.sourceforge.net/DTD/sodipodi-0.dtd"
   xmlns:inkscape="http://www.inkscape.org/namespaces/inkscape"
   viewBox="0 0 671.69307 143.68667"
   height="143.68668"
   width="671.69305"
   xml:space="preserve"
   id="svg2"
   version="1.1"
   sodipodi:docname="partners_logo_solo.svg"
   inkscape:version="0.92.1 r15371"><sodipodi:namedview
     pagecolor="#ffffff"
     bordercolor="#666666"
     borderopacity="1"
     objecttolerance="10"
     gridtolerance="10"
     guidetolerance="10"
     inkscape:pageopacity="0"
     inkscape:pageshadow="2"
     inkscape:window-width="1440"
     inkscape:window-height="837"
     id="namedview3711"
     showgrid="false"
     showguides="true"
     inkscape:guide-bbox="true"
     fit-margin-top="0"
     fit-margin-left="0"
     fit-margin-right="0"
     fit-margin-bottom="0"
     inkscape:zoom="0.67637427"
     inkscape:cx="-149.0169"
     inkscape:cy="134.98614"
     inkscape:window-x="-8"
     inkscape:window-y="-8"
     inkscape:window-maximized="1"
     inkscape:current-layer="svg2"><sodipodi:guide
       position="305.64267,143.68668"
       orientation="0,1"
       id="guide3766"
       inkscape:locked="false" /></sodipodi:namedview><metadata
     id="metadata8"><rdf:RDF><cc:Work
         rdf:about=""><dc:format>image/svg+xml</dc:format><dc:type
           rdf:resource="http://purl.org/dc/dcmitype/StillImage" /><dc:title></dc:title></cc:Work></rdf:RDF></metadata><defs
     id="defs6" /><path
     id="path14"
     style="fill:#4885cb;fill-opacity:1;fill-rule:nonzero;stroke:none;stroke-width:0.13333333"
     d="m 158.2227,67.871609 c -1.8333,0.91773 -3.7707,1.6572 -5.8067,2.21613 -2.0413,0.56253 -4.0786,1.09627 -6.1146,1.6068 -3.364,0.81453 -5.912,1.78373 -7.644,2.90307 -1.7334,1.1224 -2.6,3.00679 -2.6,5.65679 0,1.83334 0.892,3.51507 2.676,5.04267 1.784,1.52707 4.052,2.29373 6.8026,2.29373 3.464,0 6.3947,-1.01866 8.7907,-3.0572 2.392,-2.0376 3.6933,-5.14533 3.896,-9.32346 z m 29.044,17.88586 c 0,2.95467 0.1773,6.01307 0.5373,9.1704 0.3547,3.1604 1.3974,6.014531 3.1334,8.560401 h -30.88 c -0.408,-1.1204 -0.7134,-2.37093 -0.9174,-3.745871 -0.2053,-1.37546 -0.2546,-2.6224 -0.1506,-3.74373 h -0.308 c -3.2614,3.66667 -7.1067,6.166671 -11.5414,7.489601 -4.432,1.3224 -9.0946,1.98747 -13.9864,1.98747 -3.8744,0 -7.4896,-0.45987 -10.8536,-1.37867 -3.363,-0.91453 -6.3193,-2.36667 -8.865,-4.354671 -2.5475,-1.98493 -4.5626,-4.48226 -6.0371,-7.48906 -1.4785,-3.0052 -2.2172,-6.59734 -2.2172,-10.77814 0,-4.17546 0.7387,-7.66506 2.2172,-10.46973 1.4745,-2.80053 3.4615,-5.14426 5.9609,-7.0324 2.4954,-1.8828 5.323,-3.33533 8.483,-4.3552 3.1582,-1.01813 6.3942,-1.83586 9.7077,-2.44573 3.3105,-0.61253 6.5732,-1.09587 9.7839,-1.45267 3.2093,-0.35733 6.088,-0.78853 8.636,-1.30053 2.0373,-0.4052 3.92,-1.04373 5.656,-1.90987 1.732,-0.8656 2.5973,-2.57346 2.5973,-5.120804 0,-2.648933 -1.0453,-4.532266 -3.1333,-5.655733 -2.0894,-1.121333 -4.356,-1.682266 -6.8014,-1.682266 -2.3453,0 -4.2293,0.256133 -5.656,0.764533 -1.428,0.5104 -2.5733,1.1724 -3.4386,1.986933 -0.8667,0.817734 -1.4534,1.707333 -1.7587,2.6756 -0.3067,0.968667 -0.4587,1.860933 -0.4587,2.674933 h -28.1254 c 0.2025,-5.604133 1.577,-10.112533 4.1245,-13.528133 2.5463,-3.413466 5.7577,-6.039066 9.6333,-7.872399 3.8698,-1.833334 8.1771,-3.0568 12.9156,-3.668667 4.7374,-0.610933 9.452,-0.918267 14.14,-0.918267 9.476,0 16.7627,0.893734 21.8587,2.675467 5.0947,1.785467 8.8133,4.154267 11.16,7.1084 2.3413,2.9568 3.692,6.294266 4.0507,10.012933 0.356,3.720933 0.5333,7.46574 0.5333,11.23601 v 32.55986"
     inkscape:connector-curvature="0" /><path
     id="path16"
     style="fill:#4885cb;fill-opacity:1;fill-rule:nonzero;stroke:none;stroke-width:0.13333333"
     d="m 195.676,24.151733 h 29.044 v 12.688533 h 0.3054 c 2.4453,-4.788 5.40127,-8.4312 8.86527,-10.928667 3.464,-2.495733 7.9507,-3.7468 13.452,-3.7468 2.852,0 5.8107,0.4088 8.8667,1.222934 v 26.752006 c -1.528,-0.50933 -3.132,-0.96813 -4.816,-1.37654 -1.68,-0.405734 -4.0507,-0.610934 -7.108,-0.610934 -6.0134,0 -10.572,1.860944 -13.68,5.580274 -3.10797,3.7208 -4.66267,9.85933 -4.66267,18.41973 V 103.48827 H 195.676 V 24.151733"
     inkscape:connector-curvature="0" /><path
     id="path18"
     style="fill:#4885cb;fill-opacity:1;fill-rule:nonzero;stroke:none;stroke-width:0.13333333"
     d="m 305.64267,24.151733 h 16.204 v 18.649999 h -16.204 v 27.668277 c 0,3.66973 0.5867,6.34533 1.7587,8.02493 1.1706,1.6808 3.692,2.52346 7.5666,2.52346 2.2427,0 4.5334,-0.1536 6.8787,-0.45986 v 22.929731 c -3.056,0 -6.2413,0.15413 -9.5547,0.45827 -3.3106,0.3052 -6.5973,0.45893 -9.856,0.45893 -3.264,0 -6.4986,-0.20427 -9.7093,-0.612 -3.2093,-0.4052 -6.0893,-1.4256 -8.636,-3.05627 -2.548,-1.630801 -4.6387,-4.025061 -6.2653,-7.185461 -1.632,-3.1572 -2.4467,-7.43694 -2.4467,-12.84054 V 42.801732 h -13.4547 V 24.151733 h 13.4547 V 0 h 30.264 v 24.151733"
     inkscape:connector-curvature="0" /><path
     id="path20"
     style="fill:#4885cb;fill-opacity:1;fill-rule:nonzero;stroke:none;stroke-width:0.13333333"
     d="m 328.41997,24.151733 h 29.1987 v 10.089599 h 0.304 c 2.8533,-3.973999 6.3453,-6.979199 10.472,-9.017733 4.1253,-2.037466 9.2467,-3.0588 15.3627,-3.0588 3.5626,0 6.9786,0.562534 10.244,1.682267 3.2586,1.122933 6.164,2.778667 8.7093,4.967733 2.5453,2.192133 4.5627,4.9692 6.04,8.3312 1.4747,3.363067 2.216,7.3376 2.216,11.92401 v 54.418261 h -30.2653 V 61.909609 c 0,-2.24014 -0.104,-4.3308 -0.308,-6.26827 -0.2067,-1.93333 -0.6654,-3.59107 -1.3747,-4.9672 -0.7147,-1.37493 -1.7067,-2.445874 -2.98,-3.209874 -1.276,-0.764533 -3.0333,-1.145333 -5.2773,-1.145333 -1.324,0 -2.7,0.2052 -4.124,0.6104 -1.4294,0.408933 -2.728,1.172933 -3.8974,2.292277 -1.1733,1.12293 -2.1426,2.67493 -2.9053,4.662 -0.7653,1.98693 -1.1453,4.5624 -1.1453,7.72133 v 41.883331 h -30.2694 V 24.151733"
     inkscape:connector-curvature="0" /><path
     id="path22"
     style="fill:#4885cb;fill-opacity:1;fill-rule:nonzero;stroke:none;stroke-width:0.13333333"
     d="m 473.63867,54.877869 c 0,-3.66933 -1.248,-6.801604 -3.7453,-9.400537 -2.4974,-2.598 -5.68,-3.898533 -9.5547,-3.898533 -4.584,0 -8.1507,1.1464 -10.6973,3.4396 -2.5507,2.293733 -4.18,5.57921 -4.8907,9.85947 z m -29.0453,15.7448 c 0.408,4.58747 1.888,8.3072 4.4346,11.1588 2.5494,2.85307 6.216,4.2812 11.008,4.2812 2.4454,0 4.8654,-0.46147 7.26,-1.3744 2.3947,-0.9188 4.2027,-2.34587 5.428,-4.2828 h 28.2787 c -1.5293,4.2828 -3.668,8.00253 -6.42,11.15987 -2.7533,3.1588 -5.94,5.75733 -9.5547,7.79586 -3.6186,2.039071 -7.5426,3.566671 -11.772,4.585341 -4.228,1.0188 -8.584,1.5292 -13.068,1.5292 -6.3213,0 -12.204,-0.91827 -17.6546,-2.75307 -5.4547,-1.8344 -10.1654,-4.507871 -14.1427,-8.024001 -3.9733,-3.51613 -7.0827,-7.84693 -9.32,-12.99373 -2.2467,-5.14333 -3.3653,-11.0292 -3.3653,-17.65467 0,-5.80893 0.992,-11.23546 2.98,-16.281337 1.9866,-5.043733 4.8173,-9.475466 8.484,-13.298933 3.668,-3.819733 8.0746,-6.824533 13.2213,-9.0172 5.1467,-2.190666 10.8787,-3.288 17.1987,-3.288 7.844,0 14.62,1.071867 20.3293,3.2104 5.7067,2.140134 10.3947,5.275067 14.0653,9.402667 3.6667,4.126 6.368,9.196266 8.1,15.207743 1.732,6.01506 2.6027,12.89426 2.6027,20.63706 h -58.0933"
     inkscape:connector-curvature="0" /><path
     id="path24"
     style="fill:#4885cb;fill-opacity:1;fill-rule:nonzero;stroke:none;stroke-width:0.13333333"
     d="m 508.49467,24.151733 h 29.044 v 12.688533 h 0.304 c 2.4453,-4.788 5.4027,-8.4312 8.8653,-10.928667 3.464,-2.495733 7.948,-3.7468 13.4547,-3.7468 2.848,0 5.8067,0.4088 8.8653,1.222934 v 26.752006 c -1.532,-0.50933 -3.1333,-0.96813 -4.8173,-1.37654 -1.68,-0.405734 -4.048,-0.610934 -7.1093,-0.610934 -6.0134,0 -10.5707,1.860944 -13.68,5.580274 -3.1067,3.7208 -4.6627,9.85933 -4.6627,18.41973 v 31.336001 h -30.264 V 24.151733"
     inkscape:connector-curvature="0" /><path
     id="path26"
     style="fill:#4885cb;fill-opacity:1;fill-rule:nonzero;stroke:none;stroke-width:0.13333333"
     d="m 44.9531,24.151733 h 7.3432 v -7.342187 h -7.3432 z"
     inkscape:connector-curvature="0" /><path
     id="path28"
     style="fill:#4885cb;fill-opacity:1;fill-rule:nonzero;stroke:none;stroke-width:0.13333333"
     d="m 69.947,70.929869 c -0.359,2.34374 -1.0464,4.43334 -2.0642,6.2656 -1.0202,1.836 -2.3702,3.34013 -4.051,4.50947 -1.6823,1.1724 -3.8979,1.7604 -6.649,1.7604 -2.7521,0 -4.9692,-0.588 -6.6494,-1.7604 -1.6818,-1.16934 -3.0334,-2.67347 -4.0516,-4.50947 -1.0203,-1.83226 -1.7067,-3.92186 -2.0635,-6.2656 -0.3584,-2.3448 -0.5349,-4.68586 -0.5349,-7.03333 0,-2.3416 0.1765,-4.68533 0.5349,-7.03173 0.3568,-2.34214 1.0432,-4.4568 2.0635,-6.34214 1.0182,-1.886004 2.3698,-3.413604 4.0516,-4.58707 1.6802,-1.171334 3.8973,-1.757734 6.6494,-1.757734 2.7511,0 4.9667,0.5864 6.649,1.757734 1.6808,1.173466 3.0308,2.701066 4.051,4.58707 1.0178,1.88534 1.7052,4 2.0642,6.34214 0.3546,2.3464 0.5348,4.69013 0.5348,7.03173 0,2.34747 -0.1802,4.68853 -0.5348,7.03333 z M 98.685,49.221609 C 97.6563,45.491865 96.2427,42.029866 94.4448,38.838799 H 81.6694 v 7.3432 h -7.3439 v -7.3432 h 7.3439 v -13.162 c -4.0844,-2.3308 -8.8292,-3.512 -14.2454,-3.512 -3.6688,0 -6.7786,0.333334 -9.325,0.993734 -2.5479,0.664133 -4.688,1.505733 -6.4198,2.523466 -1.7338,1.0192 -3.186,2.1672 -4.3557,3.440134 -1.1729,1.274399 -2.2177,2.521333 -3.1344,3.744266 H 43.8834 V 31.494932 H 36.5407 V 24.151733 H 29.1766 V 38.641866 H 14.686 v 53.978133 h 7.1744 V 107.3064 h 7.3438 v 21.86147 h 7.3365 v -8.41293 h 8.4124 V 94.774669 h 0.3068 c 2.3423,3.36413 5.3989,5.988001 9.1708,7.873471 3.7699,1.88226 7.9496,2.8276 12.5349,2.8276 6.623,0 12.1266,-1.27454 16.509,-3.8208 4.3796,-2.548541 7.8468,-5.809471 10.3948,-9.782801 2.5457,-3.97507 4.3312,-8.4068 5.3504,-13.3 1.0162,-4.8912 1.5286,-9.6824 1.5286,-14.36933 0,-4.9916 -0.6885,-9.98587 -2.0634,-14.9812 z m -9.6724,-17.75001 v 0.02333 h 0.022 c -0.01,-0.0072 -0.015,-0.01613 -0.022,-0.02333 z M 14.686,114.6492 h 7.1744 v -7.3428 H 14.686 v 7.3428"
     inkscape:connector-curvature="0" /><path
     id="path30"
     style="fill:#4885cb;fill-opacity:1;fill-rule:nonzero;stroke:none;stroke-width:0.13333333"
     d="m 44.9531,143.68667 h 7.3432 v -7.34271 h -7.3432 z"
     inkscape:connector-curvature="0" /><path
     id="path32"
     style="fill:#4885cb;fill-opacity:1;fill-rule:nonzero;stroke:none;stroke-width:0.13333333"
     d="m 0,92.619999 h 7.3433 v -7.34426 H 0 Z"
     inkscape:connector-curvature="0" /><path
     id="path34"
     style="fill:#4885cb;fill-opacity:1;fill-rule:nonzero;stroke:none;stroke-width:0.13333333"
     d="M 7.3433,99.963744 H 14.686 V 92.619989 H 7.3433 Z"
     inkscape:connector-curvature="0" /><path
     id="path36"
     style="fill:#4885cb;fill-opacity:1;fill-rule:nonzero;stroke:none;stroke-width:0.13333333"
     d="m 14.686,129.16787 h 7.3433 v -7.34375 H 14.686 Z"
     inkscape:connector-curvature="0" /><path
     id="path38"
     style="fill:#4885cb;fill-opacity:1;fill-rule:nonzero;stroke:none;stroke-width:0.13333333"
     d="M 0,16.810666 H 7.3433 V 9.46692 H 0 Z"
     inkscape:connector-curvature="0" /><path
     id="path40"
     style="fill:#4885cb;fill-opacity:1;fill-rule:nonzero;stroke:none;stroke-width:0.13333333"
     d="M 0,38.838799 H 7.3433 V 31.495052 H 0 Z"
     inkscape:connector-curvature="0" /><path
     id="path42"
     style="fill:#4885cb;fill-opacity:1;fill-rule:nonzero;stroke:none;stroke-width:0.13333333"
     d="M 7.3433,24.151733 H 14.686 V 16.810586 H 7.3433 Z"
     inkscape:connector-curvature="0" /><path
     id="path44"
     style="fill:#4885cb;fill-opacity:1;fill-rule:nonzero;stroke:none;stroke-width:0.13333333"
     d="m 14.686,31.494932 h 7.3433 V 24.151706 H 14.686 Z"
     inkscape:connector-curvature="0" /><path
     id="path46"
     style="fill:#4885cb;fill-opacity:1;fill-rule:nonzero;stroke:none;stroke-width:0.13333333"
     d="M 0.1688,143.68667 H 14.686 v -14.5188 H 0.1688 Z"
     inkscape:connector-curvature="0" /><path
     id="path48"
     style="fill:#4885cb;fill-opacity:1;fill-rule:nonzero;stroke:none;stroke-width:0.13333333"
     d="m 96.3563,24.151733 h 7.3427 v -7.342187 h -7.3427 z"
     inkscape:connector-curvature="0" /><path
     id="path50"
     style="fill:#4885cb;fill-opacity:1;fill-rule:nonzero;stroke:none;stroke-width:0.13333333"
     d="m 103.699,16.8096 h 14.5188 V 2.2908 H 103.699 Z"
     inkscape:connector-curvature="0" /><path
     id="path52"
     style="fill:#4885cb;fill-opacity:1;fill-rule:nonzero;stroke:none;stroke-width:0.13333333"
     d="m 649.83197,24.153866 h 7.3417 V 16.81064 h -7.3417 z"
     inkscape:connector-curvature="0" /><path
     id="path54"
     style="fill:#4885cb;fill-opacity:1;fill-rule:nonzero;stroke:none;stroke-width:0.13333333"
     d="m 657.17327,16.810666 h 14.5198 V 2.2924 h -14.5198 z"
     inkscape:connector-curvature="0" /><path
     id="path56"
     style="fill:#4885cb;fill-opacity:1;fill-rule:nonzero;stroke:none;stroke-width:0.13333333"
     d="m 650.34667,69.018409 c -1.0187,-2.39427 -2.3947,-4.4828 -4.1254,-6.26814 -1.7373,-1.78186 -3.7466,-3.26053 -6.0386,-4.43293 -2.2907,-1.17027 -4.7147,-2.16293 -7.2614,-2.98067 -2.5493,-0.814 -5.1213,-1.50266 -7.7186,-2.06306 -2.5974,-0.5588 -5.1,-1.04374 -7.4907,-1.45254 -2.3973,-0.4068 -4.5867,-0.8136 -6.5733,-1.22346 -1.988,-0.4068 -3.5934,-0.8636 -4.816,-1.376 -0.816,-0.404677 -1.604,-0.91521 -2.3667,-1.528144 -0.7653,-0.6104 -1.148,-1.476533 -1.148,-2.597466 0,-2.547867 0.992,-4.2052 2.98,-4.9692 1.9853,-0.764667 4.0507,-1.145333 6.1893,-1.145333 2.6494,0 4.892,0.764 6.728,2.292133 1.016,0.7136 1.8347,1.554267 2.4454,2.521333 0.6106,0.969333 0.9706,2.116667 1.0706,3.4396 h 4.5307 v -8.5624 h 8.56 V 26.483599 c -3.3347,-1.5136 -6.9707,-2.614133 -10.9493,-3.246933 -4.488,-0.713067 -8.8667,-1.071867 -13.148,-1.071867 -3.9734,0 -8.1547,0.383867 -12.5347,1.147334 -4.3813,0.764133 -8.4333,2.090133 -12.152,3.974 -3.72,1.887466 -6.7787,4.458799 -9.1693,7.720799 -2.3973,3.262 -3.5933,7.3896 -3.5933,12.381333 0,6.828674 2.5186,12.205204 7.5666,16.125474 5.0427,3.92653 13.3213,6.85787 24.84,8.7896 3.464,0.6136 6.2907,1.17493 8.48,1.68227 2.192,0.51093 3.9013,1.06933 5.1227,1.6828 1.224,0.60946 2.0386,1.324 2.4466,2.13906 0.4067,0.81667 0.6134,1.78387 0.6134,2.90373 0,1.1224 -0.36,2.09 -1.0734,2.90467 -0.7146,0.81773 -1.5786,1.452 -2.5973,1.912 -1.0227,0.4572 -2.1173,0.788 -3.2867,0.99213 -1.172,0.2052 -2.2666,0.30414 -3.2853,0.30414 -3.6707,0 -6.372,-0.76147 -8.104,-2.29054 -2.3467,-2.0376 -3.568,-4.38133 -3.6667,-7.03186 h -28.8919 c 0.099,5.09533 1.3506,9.4276 3.7453,12.9928 2.3933,3.5692 5.476,6.47333 9.2453,8.71186 3.772,2.244271 7.976,3.848541 12.6147,4.817741 4.6333,0.96666 9.296,1.4516 13.988,1.4516 4.7866,0 9.6026,-0.436 14.4426,-1.3 4.84,-0.86507 9.1734,-2.34374 12.996,-4.433341 3.8214,-2.08746 6.9254,-4.9412 9.3254,-8.55986 2.3933,-3.6156 3.592,-8.17707 3.592,-13.6808 0,-3.2604 -0.5147,-6.08747 -1.532,-8.48333"
     inkscape:connector-curvature="0" /></svg>